<svg width="17" height="18" viewBox="0 0 17 18" fill="none" xmlns="http://www.w3.org/2000/svg">
<path fill-rule="evenodd" clip-rule="evenodd" d="M3.05317 4.5049C3.05317 2.037 5.32633 0 8.13435 0C10.9201 0 13.1932 2.037 13.2155 4.5049V5.91513H13.4607C14.8647 5.91513 16.0013 6.91404 16.0013 8.14799V15.7671C16.0013 17.0011 14.8647 18 13.4607 18H2.54059C1.13658 18 0 17.0011 0 15.7671V8.14799C0 6.91404 1.13658 5.91513 2.54059 5.91513H3.05317V4.5049ZM8.11206 0.900979C5.88347 0.900979 4.05603 2.52666 4.05603 4.5049V5.91513H12.1904V4.5049C12.1904 2.52666 10.3407 0.900979 8.11206 0.900979ZM14.9761 8.1284C14.9761 7.4037 14.3075 6.79652 13.4607 6.79652V6.81611H2.54059C1.71601 6.81611 1.02515 7.4037 1.02515 8.14799V15.7476C1.02515 16.4723 1.69373 17.0794 2.54059 17.0794H13.4607C14.2853 17.0794 14.9761 16.4918 14.9761 15.7476V8.1284ZM8.5116 13.4951C8.5116 13.7497 8.28874 13.9456 7.99902 13.9456C7.70931 13.9456 7.48645 13.7301 7.48645 13.4951V12.1632C7.48645 11.9086 7.70931 11.7127 7.99902 11.7127C8.28874 11.7127 8.5116 11.9086 8.5116 12.1632V13.4951Z" fill="black"/>
</svg>
